<svg width="18" height="14" viewBox="0 0 18 14" fill="none" xmlns="http://www.w3.org/2000/svg">
<path d="M15.75 0H2.25C1.01471 0 0 1.03537 0 2.29582V11.7042C0 12.9646 1.01471 14 2.25 14H15.75C16.9853 14 18 12.9646 18 11.7042V2.29582C18 1.03537 16.9853 0 15.75 0ZM16.8971 11.7042C16.8971 12.3344 16.3897 12.8746 15.75 12.8746H2.25C1.63235 12.8746 1.10294 12.3569 1.10294 11.7042V2.29582C1.10294 1.6656 1.61029 1.1254 2.25 1.1254H15.75C16.3676 1.1254 16.8971 1.64309 16.8971 2.29582V11.7042ZM15.7279 11.0064C15.9485 11.209 15.9706 11.5691 15.75 11.7942C15.6397 11.9068 15.4853 11.9743 15.3529 11.9743C15.2206 11.9743 15.0882 11.9293 14.9779 11.8167L10.5882 7.63023L9.35294 8.6881C9.24265 8.77814 9.13235 8.82315 9 8.82315C8.86765 8.82315 8.73529 8.77814 8.64706 8.6881L7.41176 7.63023L3.02206 11.8392C2.91176 11.9518 2.77941 11.9968 2.64706 11.9968C2.49265 11.9968 2.36029 11.9293 2.25 11.8167C2.05147 11.5916 2.05147 11.2315 2.27206 11.0289L6.57353 6.88746L2.29412 3.19614C2.05147 2.99357 2.02941 2.63344 2.22794 2.40836C2.42647 2.16077 2.77941 2.13826 3 2.34084L9 7.51769L15 2.34084C15.2426 2.13826 15.5735 2.16077 15.7721 2.40836C15.9706 2.65595 15.9485 2.99357 15.7059 3.19614L11.4265 6.88746L15.7279 11.0064Z" fill="black"/>
</svg>
