<svg width="20" height="20" viewBox="0 0 20 20" fill="none" xmlns="http://www.w3.org/2000/svg">
<path d="M12.0951 13.6349C12.4032 13.3281 12.4032 13.3281 12.7731 12.96C13.1163 12.6185 13.3862 12.3502 13.5584 12.1796C14.4159 11.3296 15.5614 11.3295 16.4206 12.1808C17.2192 12.9722 18.0281 13.7807 18.8512 14.6099C19.7205 15.4859 19.7149 16.6322 18.8422 17.513C18.6695 17.6872 18.3865 17.8946 18.0019 18.1422C17.9161 18.1974 17.826 18.2542 17.7319 18.3122C17.4787 18.4684 17.2084 18.6272 16.9384 18.7807C16.7763 18.8727 16.6499 18.9428 16.5876 18.9765C15.5994 19.5465 13.9943 19.6699 12.9647 19.2721C12.8614 19.2406 12.6766 19.1778 12.422 19.0811C12.0028 18.9218 11.537 18.7233 11.0362 18.4827C9.60786 17.7966 8.18007 16.9099 6.84592 15.8C6.31015 15.3543 5.79942 14.8799 5.31734 14.3759C4.9284 13.9693 4.55873 13.5457 4.20783 13.1068C3.0525 11.6617 2.14532 10.1152 1.45739 8.56816C1.21623 8.02586 1.01949 7.5215 0.863664 7.06763C0.769066 6.79208 0.708569 6.59226 0.691819 6.52224C0.304323 5.45517 0.523981 3.84893 1.16998 2.90371C1.21035 2.84123 1.2811 2.73405 1.37425 2.59687C1.52945 2.36829 1.69076 2.13956 1.85057 1.92498C1.91991 1.83188 1.98764 1.74325 2.05348 1.65972C2.22234 1.44545 2.37563 1.26836 2.51324 1.13296C3.37221 0.288188 4.51571 0.289366 5.37624 1.13438C5.727 1.4786 7.24218 2.99483 7.7903 3.54767C8.67733 4.44302 8.67935 5.57475 7.79344 6.46504C7.66056 6.59863 7.37187 6.88789 6.97365 7.28656C6.63544 7.62512 6.63544 7.62512 6.35441 7.90636C6.2094 8.05146 6.15792 8.10297 6.12456 8.13634C6.18096 8.27959 6.27447 8.50095 6.40192 8.7765C6.64863 9.30986 6.93134 9.84295 7.24408 10.3378C7.58488 10.8771 7.94043 11.3365 8.30352 11.6905C8.63883 12.0174 9.0388 12.3339 9.48976 12.6366C10.0161 12.9899 10.5828 13.3061 11.1497 13.5796C11.4434 13.7212 11.6791 13.8243 11.8397 13.8894C11.8762 13.853 11.931 13.7984 12.0951 13.6349ZM6.10047 8.07398C6.10119 8.07589 6.10192 8.07781 6.10266 8.07976C6.10207 8.07801 6.10129 8.07602 6.10047 8.07398ZM18.1414 15.3143C17.3203 14.4871 16.5133 13.6805 15.7168 12.8912C15.2474 12.4261 14.7301 12.4261 14.2623 12.8899C14.0908 13.0599 13.8212 13.3278 13.4805 13.6668C13.1087 14.0368 13.1087 14.0368 12.8008 14.3435C12.5545 14.5888 12.5545 14.5888 12.4929 14.6501C12.248 14.8941 11.8389 14.9724 11.5342 14.8439C11.366 14.7787 11.0801 14.6563 10.7153 14.4803C10.1085 14.1876 9.50154 13.849 8.93238 13.4669C8.43411 13.1324 7.9875 12.779 7.60543 12.4065C7.18012 11.9919 6.77828 11.4726 6.39874 10.872C6.06058 10.3369 5.75806 9.7665 5.49432 9.19632C5.33578 8.85359 5.22463 8.5852 5.16879 8.43712C5.04193 8.12137 5.12759 7.71926 5.3661 7.48062C5.42228 7.42441 5.42228 7.42441 5.64706 7.19949C5.92804 6.91831 5.92804 6.91831 6.26519 6.58081C6.6638 6.18174 6.95227 5.89271 7.08453 5.75975C7.58199 5.25982 7.5811 4.75737 7.08003 4.2516C6.53508 3.70196 5.02242 2.18825 4.67571 1.848C4.20383 1.38463 3.68403 1.3841 3.21451 1.84586C3.11186 1.94686 2.98394 2.09464 2.83888 2.27871C2.77895 2.35474 2.7167 2.43619 2.65259 2.52228C2.5024 2.72394 2.34918 2.94119 2.20157 3.15859C2.11303 3.289 2.04639 3.38994 2.00279 3.45711C1.52915 4.15035 1.3555 5.42016 1.64483 6.22247C1.66883 6.31224 1.72263 6.48994 1.80948 6.74292C1.95607 7.16991 2.14222 7.6471 2.37112 8.16184C3.02619 9.63497 3.89063 11.1086 4.9889 12.4823C5.32159 12.8984 5.67181 13.2998 6.03998 13.6847C6.49532 14.1607 6.9783 14.6093 7.48547 15.0313C8.75214 16.085 10.1109 16.9289 11.4692 17.5813C11.9437 17.8093 12.3836 17.9968 12.7771 18.1463C13.0102 18.2348 13.1737 18.2904 13.2901 18.3272C14.0722 18.6283 15.3617 18.5292 16.0989 18.1041C16.1671 18.067 16.2882 17.9999 16.4444 17.9112C16.7048 17.7633 16.965 17.6103 17.2069 17.4611C17.2956 17.4064 17.3804 17.353 17.4606 17.3014C17.7868 17.0914 18.0254 16.9166 18.1319 16.8091C18.6198 16.3166 18.6223 15.7989 18.1414 15.3143Z" fill="black"/>
</svg>
