<svg width="25" height="20" viewBox="0 0 25 20" fill="none" xmlns="http://www.w3.org/2000/svg">
<path d="M7.60256 15.1407C5.86329 15.1092 4.36038 14.1356 3.59637 12.7223C3.65307 12.7241 3.71002 12.7249 3.76724 12.7249C4.2792 12.7249 4.77581 12.6573 5.2479 12.5308L5.21548 11.5573C3.33502 11.1855 1.87294 9.69578 1.56441 7.83217C2.11247 8.02948 2.70044 8.14565 3.31223 8.16471L5.08108 8.21982L3.60259 7.24723C2.35928 6.42936 1.54605 5.03706 1.54605 3.46247C1.54605 2.88251 1.6563 2.3284 1.85737 1.81882C4.45911 4.65363 8.15426 6.49469 12.2876 6.69897L12.952 6.73181L12.7988 6.08443C12.7203 5.75293 12.6794 5.40619 12.6794 5.04895C12.6794 2.54419 14.7447 0.5 17.3085 0.5C18.643 0.5 19.8464 1.05422 20.6904 1.93936L20.879 2.13718L21.1473 2.08521C21.8537 1.94841 22.5355 1.74394 23.1854 1.47895C22.8165 1.98293 22.3447 2.41055 21.8001 2.73203L22.1127 3.65918C22.5909 3.60291 23.0594 3.5163 23.5163 3.40104C23.0989 3.83189 22.6417 4.22508 22.1511 4.5735L21.9288 4.73143L21.9412 5.00386C21.9507 5.21312 21.9556 5.42334 21.9556 5.63428C21.9556 12.0836 16.9699 19.5 7.86238 19.5C5.79403 19.5 3.8322 19.059 2.06414 18.2703C4.2553 18.1047 6.26542 17.2968 7.89894 16.0365L9.02663 15.1665L7.60256 15.1407Z" fill="#FEFEFE" stroke="black"/>
</svg>
