<svg width="18" height="14" fill="none" xmlns="http://www.w3.org/2000/svg"><path d="M15.75 0H2.25C1.015 0 0 1.035 0 2.296v9.408C0 12.964 1.015 14 2.25 14h13.5c1.235 0 2.25-1.035 2.25-2.296V2.296C18 1.036 16.985 0 15.75 0zm1.147 11.704c0 .63-.507 1.17-1.147 1.17H2.25a1.165 1.165 0 01-1.147-1.17V2.296c0-.63.507-1.17 1.147-1.17h13.5c.618 0 1.147.517 1.147 1.17v9.408zm-1.17-.698a.551.551 0 01.023.788.587.587 0 01-.397.18.511.511 0 01-.375-.157l-4.39-4.187-1.235 1.058A.535.535 0 019 8.823a.495.495 0 01-.353-.135L7.412 7.63l-4.39 4.21a.511.511 0 01-.375.157.547.547 0 01-.397-.18c-.199-.225-.199-.585.022-.788l4.302-4.142-4.28-3.69a.555.555 0 01-.066-.789A.529.529 0 013 2.341l6 5.177 6-5.177c.243-.203.573-.18.772.067a.553.553 0 01-.066.788l-4.28 3.691 4.302 4.12z" fill="#000"/></svg>