<svg width="20" height="20" fill="none" xmlns="http://www.w3.org/2000/svg"><path d="M12.095 13.635l.678-.675.785-.78c.858-.85 2.003-.85 2.863 0 .798.792 1.607 1.6 2.43 2.43.87.876.864 2.022-.009 2.903-.172.174-.455.382-.84.63l-.27.17a26.047 26.047 0 01-1.144.664c-.989.57-2.594.693-3.623.295a9.34 9.34 0 01-.543-.19A20.306 20.306 0 016.846 15.8a18.372 18.372 0 01-2.638-2.694 20.82 20.82 0 01-3.344-6.04 8.01 8.01 0 01-.172-.545C.304 5.455.524 3.85 1.17 2.904a19.07 19.07 0 01.883-1.244c.17-.215.323-.392.46-.527.86-.845 2.003-.844 2.863.001.351.345 1.866 1.86 2.414 2.414.887.895.89 2.027.003 2.917-.132.134-.421.423-.82.822l-.619.62-.23.23c.057.143.15.364.278.64.247.533.53 1.066.842 1.56.34.54.696 1 1.06 1.354a8.5 8.5 0 001.186.946c.526.353 1.093.67 1.66.943.293.141.53.244.69.31l.255-.255zM6.1 8.074l.003.006a.113.113 0 00-.003-.006zm12.041 7.24a415.828 415.828 0 00-2.424-2.423c-.47-.465-.987-.465-1.455-.001l-.782.777-.68.677-.307.306a.917.917 0 01-.959.194 12.02 12.02 0 01-.819-.364 14.572 14.572 0 01-1.783-1.013 9.419 9.419 0 01-1.327-1.06c-.425-.415-.827-.934-1.206-1.535a14.727 14.727 0 01-.905-1.676 11.67 11.67 0 01-.325-.759.921.921 0 01.197-.956l.281-.282.618-.618.82-.821c.497-.5.496-1.003-.005-1.508-.545-.55-2.058-2.064-2.404-2.404-.472-.463-.992-.464-1.461-.002a4.82 4.82 0 00-.376.433 18.093 18.093 0 00-.836 1.178c-.474.693-.648 1.963-.358 2.765.024.09.078.268.164.52a19.828 19.828 0 003.18 5.74 17.397 17.397 0 002.497 2.549 19.314 19.314 0 003.983 2.55c.475.228.915.416 1.308.565.233.089.397.144.513.181.782.301 2.072.202 2.809-.223a24.83 24.83 0 001.362-.803c.326-.21.564-.384.67-.492.489-.492.491-1.01.01-1.495z" fill="#000"/></svg>