<svg width="25" height="20" fill="none" xmlns="http://www.w3.org/2000/svg"><path d="M7.603 15.14a4.642 4.642 0 01-4.007-2.418l.171.003c.512 0 1.009-.068 1.48-.194l-.032-.974c-1.88-.372-3.342-1.861-3.65-3.725a5.676 5.676 0 001.747.333l1.77.055-1.48-.973a4.526 4.526 0 01-2.056-3.785c0-.58.11-1.134.311-1.643a15.144 15.144 0 0010.43 4.88l.665.033-.153-.648a4.49 4.49 0 01-.12-1.035C12.68 2.544 14.745.5 17.31.5a4.66 4.66 0 013.381 1.44l.189.197.268-.052a10.87 10.87 0 002.038-.606A4.64 4.64 0 0121.8 2.732l.313.927c.478-.056.946-.143 1.403-.258-.417.43-.874.824-1.365 1.173l-.222.157.012.273c.01.21.015.42.015.63 0 6.45-4.986 13.866-14.094 13.866-2.068 0-4.03-.441-5.798-1.23A10.877 10.877 0 007.9 16.037l1.128-.87-1.424-.026z" fill="#FEFEFE" stroke="#000"/></svg>